# xmcd CD database file
#
# Track frame offsets:
#	150
#	11458
#	24925
#	39062
#	52376
#	72224
#	85958
#	98726
#	119195
#	133574
#	148796
#	161123
#	176904
#	188445
#
# Disc length: 2672 seconds
#
# Revision: 0
# Processed by: cddbd v1.5.1PL0 Copyright (c) Steve Scherf et al.
# Submitted via: CDex 1.50beta10
#
DISCID=bf0a6e0e
DTITLE=David Croser - Proud To Be A Farmer
DYEAR=1900
DGENRE=Country
TTITLE0=Motorcycle Cowboy
TTITLE1=Leave Him in the Longyard
TTITLE2=Proud to be a Farmer
TTITLE3=Wild Eyed Steer
TTITLE4=She's Going to Get Away This Time
TTITLE5=In the Garden
TTITLE6=Fuelled Up and Rolling
TTITLE7=A Bushman Can't Survive
TTITLE8=Lucky Old Cowboy
TTITLE9=One Day at a Time
TTITLE10=Rex the Chunder Dog
TTITLE11=Where the Murray Meets the Darling
TTITLE12=When Helen Came Down From Heaven
TTITLE13=Give My Love To Rose
EXTD=
EXTT0=
EXTT1=
EXTT2=
EXTT3=
EXTT4=
EXTT5=
EXTT6=
EXTT7=
EXTT8=
EXTT9=
EXTT10=
EXTT11=
EXTT12=
EXTT13=
PLAYORDER=
